<svg width="116" height="17" viewBox="0 0 116 17" fill="none" xmlns="http://www.w3.org/2000/svg">
<path d="M0 0.28833H6.99902C8.77746 0.28833 10.1543 0.807302 11.0722 1.67225C11.7606 2.36422 12.1049 3.22917 12.1049 4.26711V4.32478C12.1049 6.22767 11.0149 7.20795 9.86747 7.78459C11.7033 8.41889 12.9654 9.45683 12.9654 11.5904C12.9654 14.3582 10.6706 15.8575 7.2285 15.8575H0.0573681L0 0.28833ZM9.35115 4.67076C9.35115 3.45982 8.37588 2.7102 6.59744 2.7102H2.63897V6.86197H6.36796C8.20377 6.86197 9.35115 6.17001 9.35115 4.67076ZM7.05639 9.16851H2.69634V13.4356H7.2285C9.12167 13.4356 10.2117 12.686 10.2117 11.3021V11.2444C10.2117 9.9758 9.17904 9.16851 7.05639 9.16851Z" fill="#3C4343"/>
<path d="M14.2273 0.230591H25.7585V2.71012H16.981V6.74657H24.7832V9.2261H16.981V13.4355H25.8732V15.9151H14.2273V0.230591Z" fill="#3C4343"/>
<path d="M30.5204 2.71012H25.5867V0.230591H40.2158L39.1831 2.71012H33.2741V15.8574H30.5204V2.71012Z" fill="#3C4343"/>
<path d="M43.3707 2.71012H38.437V0.230591H53.0661L52.0335 2.71012H46.1245V15.8574H43.3707V2.71012Z" fill="#3C4343"/>
<path d="M60.2948 12.1093L61.8438 15.8574H64.7122L57.828 0.230591H55.3037L48.4768 15.8574H51.2879L53.8695 9.62974L56.5085 3.40208L59.2048 9.62974" fill="#3C4343"/>
<path d="M64.8269 13.6086L66.4906 11.648C67.9822 12.9166 69.4738 13.6663 71.4243 13.6663C73.088 13.6663 74.1781 12.859 74.1781 11.7057V11.648C74.1781 10.5524 73.547 9.91812 70.6785 9.28382C67.3511 8.47654 65.5153 7.49626 65.5153 4.61308V4.55542C65.5153 1.9029 67.7527 0 70.8506 0C73.088 0 74.9239 0.691962 76.4728 1.96056L74.9812 4.03645C73.6044 2.9985 72.1701 2.42187 70.7359 2.42187C69.1296 2.42187 68.2117 3.22916 68.2117 4.2671V4.32476C68.2117 5.5357 68.9001 6.05467 71.9407 6.80429C75.2107 7.61158 76.9318 8.76485 76.9318 11.3597V11.4174C76.9318 14.3582 74.637 16.0881 71.367 16.0881C68.9001 16.1458 66.6627 15.2808 64.8269 13.6086Z" fill="#3C4343"/>
<path d="M78.3086 0.28833H89.8398V2.76786H81.0623V6.80431H88.8645V9.28384H81.0623V13.4933H89.9545V15.9728H78.3086V0.28833Z" fill="#3C4343"/>
<path d="M91.9624 0.28833H94.7161V13.4356H102.863V15.9151H91.9624V0.28833Z" fill="#3C4343"/>
<path d="M104.411 0.28833H116V2.76786H107.165V7.03496H115.025V9.51449H107.165V15.8575H104.411V0.28833Z" fill="#3C4343"/>
</svg>
