<?xml version="1.0" encoding="utf-8"?>
<!-- Generator: Adobe Illustrator 23.0.1, SVG Export Plug-In . SVG Version: 6.00 Build 0)  -->
<svg version="1.1" id="Layer_1" xmlns="http://www.w3.org/2000/svg" xmlns:xlink="http://www.w3.org/1999/xlink" x="0px" y="0px"
	 viewBox="0 0 595.3 841.9" style="enable-background:new 0 0 595.3 841.9;" xml:space="preserve">
<style type="text/css">
	.st0{fill:#1F1F1F;}
	.st1{fill:#EA5B0C;}
	.st2{fill:#1EA850;}
	.st3{fill:#009FE3;}
	.st4{fill:#FFFDEE;}
	.st5{fill:#FFCC00;}
</style>
<g>
	<g>
		<g>
			<path class="st0" d="M196,456.9h12.2c3.1,0,5.5,0.9,7.1,2.4c1.2,1.2,1.8,2.7,1.8,4.5v0.1c0,3.3-1.9,5-3.9,6
				c3.2,1.1,5.4,2.9,5.4,6.6v0.1c0,4.8-4,7.4-10,7.4H196L196,456.9z M212.3,464.6c0-2.1-1.7-3.4-4.8-3.4l-6.9,0l0,7.2h6.5
				C210.2,468.3,212.3,467.1,212.3,464.6L212.3,464.6z M208.2,472.3h-7.6l0,7.4h7.9c3.3,0,5.2-1.3,5.2-3.7V476
				C213.8,473.7,211.9,472.3,208.2,472.3z"/>
			<polygon class="st0" points="288.4,456.9 286.6,461.1 276.3,461.1 276.3,484 271.5,484 271.5,461.1 253.9,461.1 253.9,484 
				249.1,484 249.1,461.1 225.5,461.1 225.5,468.2 239.1,468.2 239.1,472.5 225.5,472.5 225.5,479.7 241,479.7 241,484 220.7,484 
				220.7,456.9 			"/>
			<path class="st0" d="M301,477.4l2.7,6.5h5l-12-27.1h-4.4L280.6,484l4.9,0l4.5-10.8h0l4.6-10.8l4.7,10.8"/>
			<path class="st0" d="M308.9,480l2.9-3.4c2.6,2.2,5.2,3.5,8.6,3.5c2.9,0,4.8-1.4,4.8-3.4v-0.1c0-1.9-1.1-3-6.1-4.1
				c-5.8-1.4-9-3.1-9-8.1v-0.1c0-4.6,3.9-7.9,9.3-7.9c3.9,0,7.1,1.2,9.8,3.4l-2.6,3.6c-2.4-1.8-4.9-2.8-7.4-2.8
				c-2.8,0-4.4,1.4-4.4,3.2v0.1c0,2.1,1.2,3,6.5,4.3c5.7,1.4,8.7,3.4,8.7,7.9v0.1c0,5.1-4,8.1-9.7,8.1
				C316,484.4,312.1,482.9,308.9,480z"/>
			<path class="st0" d="M332.4,456.9l20.1,0l0,4.3l-15.3,0l0,7l13.6,0l0,4.3l-13.6,0l0,7.3l15.5,0l0,4.3l-20.3,0L332.4,456.9z"/>
			<path class="st0" d="M356.3,456.9h4.8l0,22.8l14.2,0l0,4.3l-19,0L356.3,456.9z"/>
			<path class="st0" d="M377.9,456.9l20.2,0l0,4.3l-15.4,0l0,7.4l13.7,0l0,4.3l-13.7,0l0,11h-4.8L377.9,456.9z"/>
		</g>
		<g>
			<path class="st0" d="M253,489v3.2h-0.4l-1.9-2.4v2.4h-0.5V489h0.4l1.9,2.4V489H253z"/>
			<path class="st0" d="M258.5,491.8v0.4h-2.3V489h2.3v0.4h-1.8v1h1.6v0.4h-1.6v1H258.5z"/>
			<path class="st0" d="M266.1,489l-1.1,3.2h-0.5l-0.9-2.6l-0.9,2.6h-0.5l-1.1-3.2h0.5l0.9,2.6l0.9-2.6h0.4l0.9,2.6l0.9-2.6H266.1z"
				/>
			<path class="st0" d="M274.8,491.8v0.4h-2.3V489h2.3v0.4H273v1h1.6v0.4H273v1H274.8z"/>
			<path class="st0" d="M280,492.2l-0.7-1c-0.1,0-0.2,0-0.2,0h-0.8v1h-0.5V489h1.3c0.4,0,0.7,0.1,1,0.3c0.2,0.2,0.4,0.5,0.4,0.8
				c0,0.2-0.1,0.5-0.2,0.6s-0.3,0.3-0.5,0.4l0.8,1.1H280z M279.8,490.6c0.2-0.1,0.2-0.3,0.2-0.5s-0.1-0.4-0.2-0.5
				c-0.2-0.1-0.4-0.2-0.7-0.2h-0.8v1.4h0.8C279.4,490.8,279.6,490.7,279.8,490.6z"/>
			<path class="st0" d="M285.5,491.4h-1.7l-0.4,0.8H283l1.5-3.2h0.5l1.5,3.2h-0.5L285.5,491.4z M285.4,491l-0.7-1.6L284,491H285.4z"
				/>
			<path class="st0" d="M293.2,492c-0.3-0.1-0.5-0.3-0.6-0.6s-0.2-0.5-0.2-0.8s0.1-0.6,0.2-0.8c0.1-0.3,0.4-0.4,0.6-0.6
				c0.3-0.1,0.6-0.2,0.9-0.2c0.3,0,0.6,0.1,0.9,0.2c0.3,0.1,0.5,0.3,0.6,0.6s0.2,0.5,0.2,0.8c0,0.3-0.1,0.6-0.2,0.8
				s-0.3,0.4-0.6,0.6c-0.3,0.1-0.6,0.2-0.9,0.2C293.8,492.2,293.5,492.1,293.2,492z M294.8,491.6c0.2-0.1,0.3-0.3,0.4-0.4
				c0.1-0.2,0.2-0.4,0.2-0.6s-0.1-0.4-0.2-0.6c-0.1-0.2-0.3-0.3-0.4-0.4c-0.2-0.1-0.4-0.2-0.6-0.2s-0.4,0.1-0.6,0.2
				c-0.2,0.1-0.3,0.3-0.4,0.4c-0.1,0.2-0.2,0.4-0.2,0.6s0.1,0.4,0.2,0.6c0.1,0.2,0.3,0.3,0.4,0.4c0.2,0.1,0.4,0.2,0.6,0.2
				S294.6,491.8,294.8,491.6z"/>
			<path class="st0" d="M299.3,489.4v1.1h1.6v0.4h-1.6v1.3h-0.5V489h2.3v0.4H299.3z"/>
			<path class="st0" d="M307.8,492.1c-0.2-0.1-0.4-0.2-0.5-0.3l0.2-0.4c0.1,0.1,0.3,0.2,0.5,0.3c0.2,0.1,0.4,0.1,0.6,0.1
				c0.3,0,0.5,0,0.6-0.1s0.2-0.2,0.2-0.4c0-0.1,0-0.2-0.1-0.3c-0.1-0.1-0.2-0.1-0.3-0.2c-0.1,0-0.3-0.1-0.4-0.1
				c-0.2-0.1-0.4-0.1-0.6-0.2c-0.1-0.1-0.3-0.1-0.4-0.3s-0.2-0.3-0.2-0.5c0-0.2,0-0.3,0.1-0.5c0.1-0.1,0.2-0.2,0.4-0.3
				s0.4-0.1,0.7-0.1c0.2,0,0.4,0,0.6,0.1c0.2,0,0.3,0.1,0.5,0.2l-0.2,0.4c-0.1-0.1-0.3-0.2-0.4-0.2c-0.2,0-0.3-0.1-0.4-0.1
				c-0.3,0-0.5,0-0.6,0.1s-0.2,0.2-0.2,0.4c0,0.1,0,0.2,0.1,0.3c0.1,0.1,0.2,0.1,0.3,0.2c0.1,0,0.3,0.1,0.4,0.1
				c0.2,0.1,0.4,0.1,0.6,0.2s0.3,0.1,0.4,0.3s0.2,0.3,0.2,0.5c0,0.2,0,0.3-0.1,0.5c-0.1,0.1-0.2,0.2-0.4,0.3s-0.4,0.1-0.7,0.1
				C308.2,492.2,308,492.2,307.8,492.1z"/>
			<path class="st0" d="M313.3,492c-0.3-0.1-0.5-0.3-0.6-0.6s-0.2-0.5-0.2-0.8s0.1-0.6,0.2-0.8c0.1-0.3,0.4-0.4,0.6-0.6
				c0.3-0.1,0.6-0.2,0.9-0.2c0.3,0,0.6,0.1,0.9,0.2c0.3,0.1,0.5,0.3,0.6,0.6s0.2,0.5,0.2,0.8c0,0.3-0.1,0.6-0.2,0.8
				s-0.3,0.4-0.6,0.6c-0.3,0.1-0.6,0.2-0.9,0.2C313.8,492.2,313.5,492.1,313.3,492z M314.8,491.6c0.2-0.1,0.3-0.3,0.4-0.4
				c0.1-0.2,0.2-0.4,0.2-0.6s-0.1-0.4-0.2-0.6c-0.1-0.2-0.3-0.3-0.4-0.4c-0.2-0.1-0.4-0.2-0.6-0.2s-0.4,0.1-0.6,0.2
				c-0.2,0.1-0.3,0.3-0.4,0.4c-0.1,0.2-0.2,0.4-0.2,0.6s0.1,0.4,0.2,0.6c0.1,0.2,0.3,0.3,0.4,0.4c0.2,0.1,0.4,0.2,0.6,0.2
				S314.6,491.8,314.8,491.6z"/>
			<path class="st0" d="M319.4,492c-0.3-0.1-0.5-0.3-0.6-0.6c-0.1-0.2-0.2-0.5-0.2-0.8c0-0.3,0.1-0.6,0.2-0.8
				c0.1-0.2,0.3-0.4,0.6-0.6c0.3-0.1,0.6-0.2,0.9-0.2c0.3,0,0.5,0,0.7,0.1c0.2,0.1,0.4,0.2,0.5,0.4l-0.3,0.3
				c-0.2-0.3-0.5-0.4-0.9-0.4c-0.2,0-0.5,0.1-0.6,0.2c-0.2,0.1-0.3,0.3-0.5,0.4c-0.1,0.2-0.2,0.4-0.2,0.6s0.1,0.4,0.2,0.6
				c0.1,0.2,0.3,0.3,0.5,0.4c0.2,0.1,0.4,0.2,0.6,0.2c0.4,0,0.7-0.1,0.9-0.4l0.3,0.3c-0.1,0.2-0.3,0.3-0.5,0.4
				c-0.2,0.1-0.4,0.1-0.7,0.1C319.9,492.2,319.7,492.1,319.4,492z"/>
			<path class="st0" d="M324.4,489h0.5v3.2h-0.5V489z"/>
			<path class="st0" d="M330.2,491.4h-1.7l-0.4,0.8h-0.5l1.5-3.2h0.5l1.5,3.2h-0.5L330.2,491.4z M330,491l-0.7-1.6l-0.7,1.6H330z"/>
			<path class="st0" d="M333.8,489h0.5v2.8h1.7v0.4h-2.2V489z"/>
			<path class="st0" d="M342.3,489h0.5v2.8h1.7v0.4h-2.2V489z"/>
			<path class="st0" d="M349.7,491.8v0.4h-2.3V489h2.3v0.4h-1.8v1h1.6v0.4h-1.6v1H349.7z"/>
			<path class="st0" d="M354.8,491.4h-1.7l-0.4,0.8h-0.5l1.5-3.2h0.5l1.5,3.2h-0.5L354.8,491.4z M354.6,491l-0.7-1.6l-0.7,1.6H354.6
				z"/>
			<path class="st0" d="M360.5,492.2l-0.7-1c-0.1,0-0.2,0-0.2,0h-0.8v1h-0.5V489h1.3c0.4,0,0.7,0.1,1,0.3c0.2,0.2,0.4,0.5,0.4,0.8
				c0,0.2-0.1,0.5-0.2,0.6s-0.3,0.3-0.5,0.4l0.8,1.1H360.5z M360.3,490.6c0.2-0.1,0.2-0.3,0.2-0.5s-0.1-0.4-0.2-0.5
				c-0.2-0.1-0.4-0.2-0.7-0.2h-0.8v1.4h0.8C359.9,490.8,360.1,490.7,360.3,490.6z"/>
			<path class="st0" d="M366.8,489v3.2h-0.4l-1.9-2.4v2.4H364V489h0.4l1.9,2.4V489H366.8z"/>
			<path class="st0" d="M370,489h0.5v3.2H370V489z"/>
			<path class="st0" d="M376.5,489v3.2h-0.4l-1.9-2.4v2.4h-0.5V489h0.4l1.9,2.4V489H376.5z"/>
			<path class="st0" d="M382,490.6h0.4v1.3c-0.2,0.1-0.3,0.2-0.6,0.3s-0.4,0.1-0.7,0.1c-0.3,0-0.6-0.1-0.9-0.2
				c-0.3-0.1-0.5-0.3-0.6-0.6s-0.2-0.5-0.2-0.8c0-0.3,0.1-0.6,0.2-0.8s0.4-0.4,0.6-0.6c0.3-0.1,0.6-0.2,0.9-0.2c0.3,0,0.5,0,0.7,0.1
				s0.4,0.2,0.5,0.4l-0.3,0.3c-0.3-0.2-0.6-0.4-0.9-0.4c-0.2,0-0.5,0.1-0.7,0.2s-0.3,0.3-0.5,0.4c-0.1,0.2-0.2,0.4-0.2,0.6
				c0,0.2,0.1,0.4,0.2,0.6c0.1,0.2,0.3,0.3,0.5,0.4c0.2,0.1,0.4,0.2,0.7,0.2c0.3,0,0.5-0.1,0.8-0.2V490.6z"/>
		</g>
	</g>
	<g>
		<g>
			<path class="st1" d="M292.6,436.3c-23.2,0-42.1-18.9-42.1-42.1c0-23.2,18.9-42.1,42.1-42.1c23.2,0,42.1,18.9,42.1,42.1
				C334.8,417.4,315.9,436.3,292.6,436.3z M292.6,354.1c-22.1,0-40.1,18-40.1,40.1c0,22.1,18,40.1,40.1,40.1s40.1-18,40.1-40.1
				C332.7,372,314.7,354.1,292.6,354.1z"/>
		</g>
		<g>
			<path class="st2" d="M299.5,433.4c-23.2,0-42.1-18.9-42.1-42.1c0-23.2,18.9-42.1,42.1-42.1c23.2,0,42.1,18.9,42.1,42.1
				C341.6,414.5,322.7,433.4,299.5,433.4z M299.5,351.2c-22.1,0-40.1,18-40.1,40.1s18,40.1,40.1,40.1c22.1,0,40.1-18,40.1-40.1
				S321.6,351.2,299.5,351.2z"/>
		</g>
		<g>
			<path class="st3" d="M302.9,439.9c-23.2,0-42.1-18.9-42.1-42.1c0-23.2,18.9-42.1,42.1-42.1s42.1,18.9,42.1,42.1
				C345,421,326.1,439.9,302.9,439.9z M302.9,357.8c-22.1,0-40.1,18-40.1,40.1s18,40.1,40.1,40.1s40.1-18,40.1-40.1
				S325,357.8,302.9,357.8z"/>
		</g>
		<g>
			<path class="st4" d="M293.1,441.3c-23.2,0-42.1-18.9-42.1-42.1c0-23.2,18.9-42.1,42.1-42.1c23.2,0,42.1,18.9,42.1,42.1
				C335.2,422.4,316.3,441.3,293.1,441.3z M293.1,359.1c-22.1,0-40.1,18-40.1,40.1c0,22.1,18,40.1,40.1,40.1
				c22.1,0,40.1-18,40.1-40.1C333.2,377.1,315.2,359.1,293.1,359.1z"/>
		</g>
		<g>
			<path class="st5" d="M291.1,435c-23.2,0-42.1-18.9-42.1-42.1c0-23.2,18.9-42.1,42.1-42.1c23.2,0,42.1,18.9,42.1,42.1
				C333.2,416.1,314.3,435,291.1,435z M291.1,352.8c-22.1,0-40.1,18-40.1,40.1s18,40.1,40.1,40.1s40.1-18,40.1-40.1
				S313.2,352.8,291.1,352.8z"/>
		</g>
	</g>
</g>
</svg>
